<?xml version="1.0" encoding="iso-8859-1"?>
<!-- Generator: Adobe Illustrator 19.0.0, SVG Export Plug-In . SVG Version: 6.00 Build 0)  -->
<svg version="1.1" id="Layer_1" xmlns="http://www.w3.org/2000/svg" xmlns:xlink="http://www.w3.org/1999/xlink" x="0px" y="0px"
	 viewBox="0 0 328.866 328.866" style="enable-background:new 0 0 328.866 328.866;" xml:space="preserve">
<g>
	<rect x="45.295" y="7.5" style="fill:#28D2E4;" width="238.275" height="313.866"/>
	<rect x="90.937" y="62.727" style="fill:#FFDB77;" width="146.993" height="95.995"/>
	<g>
		<path style="fill:#22313F;" d="M283.572,0H45.295c-4.142,0-7.5,3.358-7.5,7.5v313.866c0,4.142,3.358,7.5,7.5,7.5H283.57
			c4.142,0,7.5-3.358,7.5-7.5V7.5C291.072,3.358,287.714,0,283.572,0z M276.072,313.866H52.795V15H276.07v298.866H276.072z"/>
		<path style="fill:#22313F;" d="M90.937,166.222h146.992c4.142,0,7.5-3.358,7.5-7.5V62.727c0-4.142-3.358-7.5-7.5-7.5H90.937
			c-4.142,0-7.5,3.358-7.5,7.5v95.995C83.437,162.864,86.795,166.222,90.937,166.222z M98.437,70.227h131.992v80.995H98.437V70.227z
			"/>
		<path style="fill:#22313F;" d="M90.937,214.933h146.992c4.142,0,7.5-3.358,7.5-7.5s-3.358-7.5-7.5-7.5H90.937
			c-4.142,0-7.5,3.358-7.5,7.5S86.795,214.933,90.937,214.933z"/>
		<path style="fill:#22313F;" d="M214.433,248.644h-100c-4.142,0-7.5,3.358-7.5,7.5c0,4.142,3.358,7.5,7.5,7.5h100
			c4.142,0,7.5-3.358,7.5-7.5C221.933,252.002,218.575,248.644,214.433,248.644z"/>
	</g>
</g>
<g>
</g>
<g>
</g>
<g>
</g>
<g>
</g>
<g>
</g>
<g>
</g>
<g>
</g>
<g>
</g>
<g>
</g>
<g>
</g>
<g>
</g>
<g>
</g>
<g>
</g>
<g>
</g>
<g>
</g>
</svg>
